<?xml version="1.0" encoding="utf-8"?>
<!-- Generator: Adobe Illustrator 27.6.1, SVG Export Plug-In . SVG Version: 6.00 Build 0)  -->
<svg version="1.1" id="Layer_1" xmlns="http://www.w3.org/2000/svg" xmlns:xlink="http://www.w3.org/1999/xlink" x="0px"
	y="0px" viewBox="0 0 1366 768" style="enable-background:new 0 0 1366 768;" xml:space="preserve">
	<style type="text/css">
		.st0 {
			fill: #FFFFFF;
		}

		.st1 {
			fill: #004B8B;
		}

		.st2 {
			fill-rule: evenodd;
			clip-rule: evenodd;
			fill: #00BD67;
		}

		.st3 {
			fill-rule: evenodd;
			clip-rule: evenodd;
			fill: #FFC400;
		}

		.st4 {
			fill: #00BD67;
		}

		.st5 {
			fill: #FFC400;
		}

		.st6 {
			fill: #039012;
		}
	</style>
	<g>
		<g>
			<path class="st1" d="M407.56,442.78v131.89h-32.13v-79.1l-29.5,79.1h-25.93l-29.68-79.29v79.29h-32.13V442.78h37.95l37.01,91.31
			l36.64-91.31H407.56z" />
			<path class="st1" d="M462.23,442.78v78.91c0,7.89,1.94,13.97,5.82,18.22c3.88,4.26,9.58,6.39,17.1,6.39
			c7.52,0,13.27-2.13,17.29-6.39c4.01-4.25,6.01-10.33,6.01-18.22v-78.91h32.13v78.72c0,11.78-2.51,21.73-7.52,29.87
			c-5.01,8.14-11.74,14.28-20.2,18.41s-17.88,6.2-28.28,6.2c-10.4,0-19.7-2.04-27.9-6.11c-8.2-4.07-14.69-10.21-19.45-18.41
			c-4.76-8.2-7.14-18.19-7.14-29.97v-78.72H462.23z" />
			<path class="st1" d="M595.25,549.87h42.08v24.8h-74.21V442.78h32.13V549.87z" />
			<path class="st1"
				d="M765.85,442.78l-45.65,88.3v43.59h-32.13v-43.59l-45.65-88.3h36.45l25.55,55.24l25.36-55.24H765.85z" />
			<path class="st1" d="M860.91,551.38h-49.23l-7.89,23.3h-33.63l47.72-131.89h37.2l47.72,131.89H868.8L860.91,551.38z
			 M852.64,526.58l-16.35-48.28l-16.16,48.28H852.64z" />
			<path class="st1" d="M1066.64,442.78v131.89h-32.13v-79.1l-29.5,79.1h-25.93l-29.68-79.29v79.29h-32.13V442.78h37.95l37.01,91.31
			l36.64-91.31H1066.64z" />
		</g>
		<g>
			<path class="st2" d="M708.83,276.86l0-0.37c0-0.94-0.06-1.87-0.08-2.8c-0.03-0.95-0.03-1.9-0.08-2.85
			c-0.05-1.04-0.15-2.06-0.23-3.1c-0.07-0.91-0.12-1.83-0.22-2.74c-0.11-1.05-0.26-2.09-0.39-3.14c-0.11-0.87-0.2-1.75-0.34-2.62
			c-0.17-1.08-0.37-2.15-0.57-3.23c-0.15-0.82-0.27-1.64-0.44-2.45c-0.23-1.12-0.5-2.22-0.76-3.32c-0.18-0.76-0.33-1.52-0.52-2.27
			c-0.29-1.15-0.63-2.29-0.96-3.43c-0.2-0.69-0.37-1.38-0.58-2.06c-0.38-1.23-0.8-2.45-1.22-3.66c-0.2-0.58-0.37-1.16-0.58-1.73
			c-0.64-1.78-1.32-3.54-2.04-5.28c-6.04-14.59-14.82-27.65-25.67-38.49c-1.44-1.44-2.92-2.83-4.43-4.19
			c-0.51-0.46-1.05-0.9-1.57-1.35c-1.02-0.88-2.03-1.76-3.08-2.61c-0.17-0.14-0.32-0.28-0.49-0.42c-0.01,0.01-0.01,0.01-0.02,0.02
			c-8.66-6.95-18.37-12.74-28.89-17.1c-14-5.8-29.27-9-45.19-9c-15.92,0-31.19,3.2-45.19,9c-14.59,6.05-27.65,14.83-38.49,25.67
			c-10.84,10.83-19.62,23.89-25.67,38.49c-5.8,14.01-9,29.28-9,45.2v106.56h88.49V277.01c0-4.15,0.8-8.04,2.22-11.49
			c1.46-3.54,3.7-6.81,6.52-9.63c2.82-2.82,6.09-5.06,9.63-6.52c3.45-1.43,7.32-2.22,11.48-2.22c4.15,0,8.03,0.78,11.48,2.22
			c3.54,1.46,6.81,3.7,9.63,6.52c2.82,2.82,5.06,6.09,6.53,9.63c1.42,3.45,2.21,7.33,2.21,11.49v106.56h88.49h0V277.01
			C708.84,276.96,708.83,276.91,708.83,276.86z" />
			<path class="st3" d="M848.04,231.8c-6.05-14.59-14.82-27.65-25.67-38.49c-10.84-10.84-23.89-19.62-38.49-25.67
			c-14-5.8-29.27-9-45.19-9c-15.92,0-31.19,3.2-45.19,9c-10.52,4.36-20.22,10.16-28.88,17.1c-0.01,0-0.01-0.01-0.02-0.02
			c-0.16,0.13-0.31,0.27-0.47,0.39c-1.08,0.88-2.14,1.79-3.19,2.7c-0.49,0.43-1,0.84-1.48,1.28c-1.52,1.37-3,2.76-4.44,4.2
			c-10.84,10.83-19.62,23.89-25.67,38.49c-5.8,14.01-9,29.28-9,45.2v106.56h88.49V277.01c0-4.15,0.79-8.04,2.22-11.49
			c1.46-3.54,3.7-6.81,6.52-9.63c2.82-2.82,6.09-5.06,9.63-6.52c3.45-1.43,7.32-2.22,11.48-2.22c4.16,0,8.03,0.78,11.48,2.22
			c3.54,1.46,6.81,3.7,9.63,6.52c2.82,2.82,5.06,6.09,6.52,9.63c1.42,3.45,2.21,7.33,2.21,11.49v106.56h88.5V277.01
			C857.04,261.09,853.84,245.81,848.04,231.8z" />
			<path class="st3" d="M555.87,178.58c-0.04-0.41-0.13-0.81-0.19-1.22c-0.14-1.07-0.28-2.15-0.49-3.2c-0.08-0.39-0.21-0.77-0.3-1.16
			c-0.25-1.05-0.49-2.1-0.81-3.11c-0.11-0.34-0.25-0.67-0.37-1.01c-0.35-1.04-0.71-2.08-1.14-3.08c-0.01-0.01-0.01-0.03-0.02-0.05
			c0,0,0,0,0,0c-6.75-15.8-22.43-26.87-40.7-26.87c-24.44,0-44.25,19.81-44.25,44.25c0,14.2,6.72,26.81,17.12,34.91
			c-0.01,0.01-0.01,0.02-0.02,0.03c0.45,0.35,0.93,0.67,1.4,1c0.43,0.31,0.86,0.64,1.3,0.93c1.06,0.71,2.15,1.37,3.27,1.99
			c0.28,0.15,0.57,0.27,0.84,0.42c0.9,0.47,1.81,0.92,2.74,1.32c0.46,0.2,0.93,0.37,1.39,0.55c0.79,0.31,1.58,0.61,2.39,0.87
			c0.51,0.17,1.02,0.32,1.53,0.47c0.81,0.23,1.63,0.44,2.45,0.63c0.51,0.12,1.02,0.23,1.54,0.33c0.9,0.17,1.82,0.3,2.74,0.42
			c0.45,0.06,0.89,0.13,1.35,0.17c1.38,0.13,2.78,0.21,4.2,0.21c24.44,0,44.25-19.82,44.25-44.25
			C556.1,181.59,556.03,180.07,555.87,178.58z" />
		</g>
	</g>
</svg>